<svg fill="white" viewBox="0 0 300 120" xmlns="http://www.w3.org/2000/svg" fill-rule="evenodd" clip-rule="evenodd" stroke-linejoin="round" stroke-miterlimit="2"><path d="M135.78113671 2.1572059c.42625464 0 .6089352.1221444.6089352.305361 0 .305361-.24357408.7328664-.66982872 1.3435884-4.32343992 5.6797146-8.95134744 12.519801-13.88372256 20.6424036-4.99326864 8.1226026-8.46419928 14.4130392-10.3518984 18.932382-.3044676.6717942-.6089352.8550108-.79161576.4885776-.06089352-.1221444-.06089352-.3664332-.06089352-.6717942 0-1.6489494 2.19216672-6.2293644 6.63739368-13.6801728 4.38433344-7.4508084 8.34241224-13.8633894 11.99602344-19.237743 3.59271768-5.3743536 5.60220384-8.0615304 6.02845848-8.0615304l.48714816-.0610722zm-24.357408 5.6797146c.36536112 0 .54804168.1221444.54804168.305361 0 .305361-.24357408.7328664-.66982872 1.3435884-3.28825008 4.3971984-6.82007424 9.466191-10.53457896 15.2069778 1.88769912.1221444 3.77539824.3664332 5.66309736.7328664 6.089352 1.2825162 9.134028 3.2368266 9.134028 5.8629312 0 .1832166-.06089352.2442888-.12178704.2442888s-.18268056-.1221444-.24357408-.305361c-.42625464-1.0382274-2.61842136-1.7100216-6.6982872-2.0764548-1.2178704-.1221444-2.67931488-.1832166-4.44522696-.1832166s-3.83629176.1221444-6.27203256.3664332c-6.02845848 9.5883354-9.98653728 16.7337828-11.99602344 21.4363422-.18268056.4275054-.36536112.6717942-.54804168.6717942s-.3044676-.1832166-.3044676-.610722c0-2.0153826 3.71450472-9.16083 11.14351416-21.37527-2.37484728.305361-4.07986584.610722-5.1759492.7939386-7.12454184 1.2825162-11.8742364 3.2368266-14.12729664 5.8629312-.66982872.8550108-1.03518984 1.6489494-1.03518984 2.3818158s.42625464 1.4046606 1.2178704 2.0764548c.24357408.1832166.18268056.2442888-.12178704.2442888l-.54804168-.1832166c-1.76591208-1.3435884-2.61842136-2.9314656-2.61842136-4.7025594s.85250928-3.4811154 2.49663432-5.1300648c2.4357408-2.442888 6.57650016-4.2139818 12.4831716-5.2522092 3.53182416-.610722 6.82007424-.916083 9.92564376-.916083h.54804168c7.12454184-11.1762126 11.08262064-16.7337828 11.75244936-16.7337828l.54804168-.0610722zM143.9408684 32.8154503c-.42625465.5496498-.9134028 1.0992996-1.40055097 1.7100216-.42625464.610722-1.03518984 1.4657328-1.70501856 2.5039602-.73072224 1.0382274-1.09608336 1.9543104-1.09608336 2.6871768s.3044676 1.0992996.97429632 1.0992996c.6089352 0 1.64412504-.3664332 3.044676-1.1603718 2.86199544-1.6489494 5.96756496-4.0918374 9.4384956-7.328664.42625464-.4275054.66982872-.4885776.79161576-.1832166v.2442888c0 .1221444-.06089352.2442888-.24357408.4275054-7.0027548 6.5957976-12.05691696 9.8936964-15.22338 9.8936964-.9134028 0-1.70501856-.305361-2.31395376-.9771552-.66982872-.610722-.97429632-1.3435884-.97429632-2.1985992 0-.8550108.36536112-2.137527 1.09608336-3.9086208-1.8268056 2.2596714-3.77539824 4.0307652-5.84577792 5.3132814-2.1312732 1.221444-3.77539824 1.832166-4.93237512 1.832166-1.15697688 0-2.19216672-.3664332-2.98378248-1.0992996-.85250928-.6717942-1.27876392-1.5878772-1.27876392-2.6261046 0-2.9925378 1.33965744-5.9850756 4.01897232-8.855469 2.00948616-2.137527 4.567014-3.664332 7.55079648-4.580415 1.33965744-.4275054 2.67931488-.6717942 3.9580788-.6717942 1.27876392 0 2.49663432.3664332 3.71450472 1.0382274 1.15697688.7328664 1.94859264 1.5878772 2.25306024 2.5650324 1.2178704 0 2.07037968.4275054 2.61842136 1.3435884.06089352.1221444.12178704.305361.12178704.610722s-.12178704.610722-.42625464.9771552-.73072224.7939386-1.15697688 1.3435884zm-4.44522697-6.0461478c-.85250928 0-1.88769912.2442888-3.044676.7939386-2.07037968.916083-4.01897232 2.442888-5.90667144 4.6414872-2.98378248 3.4811154-4.44522696 6.0461478-4.44522696 7.6950972 0 .8550108.36536112 1.2825162 1.03518984 1.2825162.54804168 0 1.522338-.3664332 2.86199544-1.0992996 1.27876392-.7328664 3.044676-2.1985992 5.1759492-4.3361262.12178704-.1221444.6089352-.5496498 1.40055096-1.3435884.79161576-.7939386 1.522338-1.4657328 2.07037968-2.0153826 1.88769912-2.0153826 2.86199544-3.4200432 2.86199544-4.3361262 0-.8550108-.66982872-1.2825162-2.00948616-1.2825162z" fill-rule="nonzero"/><path d="M174.0831608 28.1128909c0 2.8703934-1.40055097 5.8629312-4.14075937 9.0386856-2.07037968 2.442888-4.32343992 4.2139818-6.6982872 5.3132814-1.33965744.6717942-2.4357408.9771552-3.3491436.9771552-.9134028 0-1.64412504-.1832166-2.19216672-.610722-.97429632-.6717942-1.46144448-1.5878772-1.46144448-2.8703934s.36536112-2.6871768 1.03518984-4.3361262c-8.95134744 12.8862342-13.45746792 20.5813314-13.45746792 23.0852916 0 .2442888.06089352.4275054.18268056.610722.06089352.1832166.06089352.305361-.12178704.3664332l-.18268056-.0610722c-1.27876392-1.1603718-1.94859264-2.5039602-1.94859264-4.0307652 0-3.5421876 3.59271768-10.7487072 10.83904656-21.680631-1.94859264 1.9543104-2.92288896 2.6261046-2.92288896 2.0764548 0-.305361.24357408-.6717942.66982872-1.0992996 2.00948616-1.7100216 4.14075936-4.0307652 6.45471312-7.023303 2.31395376-2.9925378 3.83629176-4.8247038 4.50612048-5.496498.66982872-.6717942 1.46144448-.9771552 2.4357408-.9771552.97429632 0 1.94859264.4885776 2.92288896 1.526805-.79161576.9771552-2.31395376 2.9925378-4.567014 6.0461478 1.94859264-1.832166 3.89718528-3.1146822 5.90667144-3.8475486.97429632-.3664332 1.8268056-.5496498 2.61842136-.5496498.79161576 0 1.522338.2442888 2.31395376.7328664.79161576.5496498 1.15697688 1.4657328 1.15697688 2.8093212zm-16.92839857 11.3594292c0 1.832166.73072224 2.748249 2.1312732 2.748249.79161576 0 2.07037968-.4275054 3.71450472-1.221444 1.64412504-.7939386 3.22735656-2.137527 4.81058808-4.0307652 1.522338-1.832166 2.61842136-3.4811154 3.28825008-5.0079204.66982872-1.4657328.97429632-2.6871768.97429632-3.6032598 0-1.6489494-.66982872-2.5039602-1.94859264-2.5039602-.85250928 0-2.19216672.4275054-3.9580788 1.2825162-1.76591208.8550108-3.47093064 2.1985992-4.99326864 4.0307652-2.67931488 3.1146822-4.01897232 5.8629312-4.01897232 8.3058192z" fill-rule="nonzero"/><path d="M194.63066422 28.1128909c0 2.8703934-1.40055096 5.8629312-4.14075936 9.0386856-2.07037968 2.442888-4.32343992 4.2139818-6.6982872 5.3132814-1.33965744.6717942-2.4357408.9771552-3.3491436.9771552-.9134028 0-1.64412504-.1832166-2.19216672-.610722-.97429632-.6717942-1.46144448-1.5878772-1.46144448-2.8703934s.36536112-2.6871768 1.03518984-4.3361262c-8.95134744 12.8862342-13.45746792 20.5813314-13.45746792 23.0852916 0 .2442888.06089352.4275054.18268056.610722.06089352.1832166.06089352.305361-.12178704.3664332l-.18268056-.0610722c-1.27876392-1.1603718-1.94859264-2.5039602-1.94859264-4.0307652 0-3.5421876 3.59271768-10.7487072 10.83904656-21.680631-1.94859264 1.9543104-2.92288896 2.6261046-2.92288896 2.0764548 0-.305361.24357408-.6717942.66982872-1.0992996 2.00948616-1.7100216 4.14075936-4.0307652 6.45471312-7.023303 2.31395376-2.9925378 3.83629176-4.8247038 4.50612048-5.496498.66982872-.6717942 1.46144448-.9771552 2.4357408-.9771552.97429632 0 1.94859264.4885776 2.92288896 1.526805-.79161576.9771552-2.31395376 2.9925378-4.567014 6.0461478 1.94859264-1.832166 3.89718528-3.1146822 5.90667144-3.8475486.97429632-.3664332 1.8268056-.5496498 2.61842136-.5496498.79161576 0 1.522338.2442888 2.31395376.7328664.79161576.5496498 1.15697688 1.4657328 1.15697688 2.8093212zm-16.92839856 11.3594292c0 1.832166.73072224 2.748249 2.1312732 2.748249.79161576 0 2.07037968-.4275054 3.71450472-1.221444 1.64412504-.7939386 3.22735656-2.137527 4.81058808-4.0307652 1.522338-1.832166 2.61842136-3.4811154 3.28825008-5.0079204.66982872-1.4657328.97429632-2.6871768.97429632-3.6032598 0-1.6489494-.66982872-2.5039602-1.94859264-2.5039602-.85250928 0-2.19216672.4275054-3.9580788 1.2825162-1.76591208.8550108-3.47093064 2.1985992-4.99326864 4.0307652-2.67931488 3.1146822-4.01897232 5.8629312-4.01897232 8.3058192z" fill-rule="nonzero"/><path d="M202.69499606 28.5403963c.48714816-.5496498.73072224-.9771552.73072224-1.3435884s-.24357408-.5496498-.73072224-.5496498c-.48714816 0-1.2178704.3664332-2.19216672 1.0992996-1.03518984.7328664-2.49663432 2.0153826-4.50612048 3.9086208-2.00948616 1.8932382-3.16646304 2.9314656-3.53182416 3.2978988-.42625464.2442888-.6089352.305361-.6089352 0-.06089352-.305361.18268056-.6717942.73072224-1.0992996.54804168-.3664332 1.70501856-1.526805 3.53182416-3.4200432 1.8268056-1.8932382 3.22735656-3.1757544 4.2625464-3.969693 1.03518984-.7939386 2.19216672-1.1603718 3.47093064-1.1603718 1.46144448 0 2.4357408.5496498 2.98378248 1.6489494.24357408.4275054.36536112.916083.36536112 1.5878772 0 .6717942-.18268056 1.3435884-.48714816 2.137527-.3044676.8550108-.66982872 1.526805-1.09608336 2.137527-.42625464.6717942-1.03518984 1.4046606-1.64412504 2.3207436-.66982872.916083-1.33965744 1.7710938-1.94859264 2.6871768-.66982872.916083-.97429632 1.526805-.97429632 1.9543104 0 .4275054.18268056.610722.48714816.610722 1.58323152 0 4.567014-2.6261046 8.89045392-7.939386 2.07037968-2.5039602 3.83629176-4.8247038 5.29773624-6.9622308 1.27876392-2.9925378 2.4357408-4.6414872 3.41003712-4.9468482.36536112-.1221444.79161576-.1832166 1.33965744-.1832166.54804168 0 .9134028.2442888 1.15697688.6717942.24357408.4275054.36536112.7939386.36536112 1.0382274 0 .2442888-.18268056.4275054-.48714816.5496498-.36536112.1832166-.66982872.2442888-.97429632.1832166h-.48714816c-1.15697688 0-2.19216672.8550108-2.98378248 2.5650324-.48714816 1.0382274-1.09608336 2.748249-1.8268056 5.0689926-.79161576 2.3207436-1.46144448 4.4582706-2.1312732 6.412581-.66982872 1.9543104-1.70501856 4.2139818-3.22735656 6.8400864-1.522338 2.6261046-3.3491436 5.0689926-5.4804168 7.328664-2.1312732 2.2596714-4.68880104 4.2139818-7.61169 5.7407868-2.98378248 1.526805-5.96756496 2.3207436-9.07313448 2.3207436-3.10556952 0-5.66309736-.7328664-7.73347704-2.137527-2.1312732-1.4046606-3.41003712-3.6032598-3.89718528-6.5957976 0-.1832166.06089352-.3664332.12178704-.4275054.06089352-.0610722.18268056-.0610722.3044676 0 .12178704.0610722.18268056.1832166.18268056.3664332.42625464 2.2596714 1.522338 4.1529096 3.28825008 5.5575702 1.76591208 1.4046606 3.77539824 2.137527 6.089352 2.137527 3.044676 0 6.15024552-1.1603718 9.37760208-3.5421876 3.16646304-2.3207436 6.15024552-5.3743536 8.89045392-9.2219022 2.80110192-3.7864764 6.089352-9.3440466 9.86475024-16.6727106-.9134028 1.4046606-2.07037968 2.9925378-3.3491436 4.6414872-5.05416216 6.2904366-8.95134744 9.4051188-11.69155584 9.4051188-2.07037968 0-3.10556952-.9771552-3.10556952-2.9314656 0-.6717942.12178704-1.526805.42625464-2.442888.54804168-1.6489494 2.61842136-4.5193428 6.21113904-8.6722524z" fill-rule="nonzero"/><g><path d="M58.47711468 83.11041365c15.77142168-24.0013746 27.88923216-36.032598 36.35343144-36.032598 1.27876392 0 2.19216672.3664332 2.67931488 1.0382274.06089352.1221444.12178704.2442888.12178704.3664332 0 .0610722-.06089352.1221444-.24357408.1832166-.18268056.0610722-.42625464.0610722-.6089352 0s-.36536112-.0610722-.48714816-.0610722c-2.37484728 0-5.29773624 1.221444-8.76866688 3.7254042-3.47093064 2.5039602-6.94186128 5.6186424-10.47368544 9.466191-3.41003712 3.8475486-6.88096776 7.939386-10.23011136 12.2755122-6.51560664 8.3668914-10.89994008 14.5962558-13.0921068 18.6880932-.18268056.305361-.3044676.4275054-.48714816.4275054-.12178704 0-.24357408-.0610722-.42625464-.1832166-.18268056-.0610722-.24357408-.305361-.06089352-.610722 1.88769912-3.1146822 2.86199544-4.8247038 3.044676-5.0689926-2.49663432 1.1603718-4.20165288 1.7100216-5.11505568 1.7100216-.12178704 0-.18268056-.0610722-.24357408-.1221444 3.83629176-14.1076782 5.72399088-24.42888 5.72399088-30.9025332 0-1.7710938-.18268056-3.4200432-.6089352-5.0689926-.42625464-1.5878772-1.03518984-2.6871768-1.8268056-3.358971-.79161576-.6717942-1.64412504-.9771552-2.49663432-.9771552-1.40055096 0-2.80110192.7939386-4.20165288 2.442888-1.40055096 1.6489494-2.80110192 4.0307652-4.14075936 7.1454474-1.40055096 3.05361-2.07037968 6.2904366-2.07037968 9.7104798 0 .5496498 0 1.0382274.06089352 1.5878772.06089352.5496498-.06089352.7939386-.3044676.7939386-.06089352-.0610722-.18268056-.1832166-.24357408-.3664332-.54804168-1.0382274-.79161576-2.1985992-.79161576-3.5421876 0-4.6414872.6089352-8.1836748 1.88769912-10.5654906 1.27876392-2.3818158 2.80110192-4.3361262 4.68880104-5.801859 2.61842136-2.137527 5.11505568-3.1757544 7.36811592-3.1757544 1.27876392 0 2.55752784.3664332 3.77539824 1.1603718 3.10556952 2.0153826 4.62790752 6.5957976 4.62790752 13.8633894 0 5.801859-1.15697688 12.8862342-3.41003712 21.2531256zM90.8115738 77.55284345c-.42625464.5496498-.9134028 1.0992996-1.40055096 1.7100216-.42625464.610722-1.03518984 1.4657328-1.70501856 2.5039602-.73072224 1.0382274-1.09608336 1.9543104-1.09608336 2.6871768s.3044676 1.0992996.97429632 1.0992996c.6089352 0 1.64412504-.3664332 3.044676-1.1603718 2.86199544-1.6489494 5.96756496-4.0918374 9.4384956-7.328664.42625464-.4275054.66982872-.4885776.79161576-.1832166v.2442888c0 .1221444-.06089352.2442888-.24357408.4275054-7.0027548 6.5957976-12.05691696 9.8936964-15.22338 9.8936964-.9134028 0-1.70501856-.305361-2.31395376-.9771552-.66982872-.610722-.97429632-1.3435884-.97429632-2.1985992 0-.8550108.36536112-2.137527 1.09608336-3.9086208-1.8268056 2.2596714-3.77539824 4.0307652-5.84577792 5.3132814-2.1312732 1.221444-3.77539824 1.832166-4.93237512 1.832166-1.15697688 0-2.19216672-.3664332-2.98378248-1.0992996-.85250928-.6717942-1.27876392-1.5878772-1.27876392-2.6261046 0-2.9925378 1.33965744-5.9850756 4.01897232-8.855469 2.00948616-2.137527 4.567014-3.664332 7.55079648-4.580415 1.33965744-.4275054 2.67931488-.6717942 3.9580788-.6717942 1.27876392 0 2.49663432.3664332 3.71450472 1.0382274 1.15697688.7328664 1.94859264 1.5878772 2.25306024 2.5650324 1.2178704 0 2.07037968.4275054 2.61842136 1.3435884.06089352.1221444.12178704.305361.12178704.610722s-.12178704.610722-.42625464.9771552-.73072224.7939386-1.15697688 1.3435884zm-4.44522696-6.0461478c-.85250928 0-1.88769912.2442888-3.044676.7939386-2.07037968.916083-4.01897232 2.442888-5.90667144 4.6414872-2.98378248 3.4811154-4.44522696 6.0461478-4.44522696 7.6950972 0 .8550108.36536112 1.2825162 1.03518984 1.2825162.54804168 0 1.522338-.3664332 2.86199544-1.0992996 1.27876392-.7328664 3.044676-2.1985992 5.1759492-4.3361262.12178704-.1221444.6089352-.5496498 1.40055096-1.3435884.79161576-.7939386 1.522338-1.4657328 2.07037968-2.0153826 1.88769912-2.0153826 2.86199544-3.4200432 2.86199544-4.3361262 0-.8550108-.66982872-1.2825162-2.00948616-1.2825162z" fill-rule="nonzero"/><path d="M102.3813426 84.45400205c0 1.0992996.54804168 1.6489494 1.64412504 1.6489494.66982872 0 1.70501856-.2442888 3.10556952-.7939386 1.40055096-.5496498 3.16646304-1.7100216 5.41952328-3.4811154 2.25306024-1.7710938 3.71450472-3.1146822 4.50612048-3.9086208.79161576-.7939386 1.2178704-1.1603718 1.40055096-1.1603718.18268056.0610722.24357408.1832166.18268056.3664332-.06089352.2442888-.12178704.4275054-.3044676.610722-3.47093064 3.5421876-6.33292608 6.10722-8.58598632 7.634025-2.25306024 1.526805-4.38433344 2.3207436-6.33292608 2.3207436-1.64412504 0-2.80110192-.3664332-3.47093064-1.1603718-.66982872-.7939386-.97429632-1.6489494-.97429632-2.6871768 0-1.832166.66982872-4.0307652 1.94859264-6.5957976-2.37484728 2.5039602-3.53182416 3.358971-3.53182416 2.442888 0-.1832166.12178704-.3664332.36536112-.5496498 1.88769912-1.526805 3.9580788-3.7864764 6.15024552-6.717942 4.01897232-5.2522092 7.18543536-9.8936964 9.4384956-13.8633894.42625464-.7939386.6089352-1.3435884.6089352-1.7100216 0-.8550108-.48714816-1.0382274-1.40055096-.4885776-1.03518984.5496498-1.64412504.7328664-1.70501856.610722-.06089352-.1221444 0-.305361.18268056-.4885776.97429632-.7328664 2.31395376-1.4046606 4.01897232-2.0764548 1.70501856-.6717942 3.10556952-.9771552 4.20165288-1.0382274 1.70501856 0 2.55752784.5496498 2.55752784 1.5878772 0 .610722-.3044676 1.4046606-.85250928 2.442888-.6089352 1.0382274-2.31395376 3.05361-5.05416216 6.0461478-2.80110192 3.05361-4.50612048 4.9468482-5.11505568 5.7407868-4.20165288 5.496498-6.82007424 9.8936964-7.97705112 13.130523-.3044676.8550108-.42625464 1.5878772-.42625464 2.137527z" fill-rule="nonzero"/><path d="M129.90318386 77.43069905c2.1312732-1.1603718 3.22735656-2.3818158 3.22735656-3.6032598s-.73072224-1.832166-2.19216672-1.832166c-.66982872 0-1.40055096.1832166-2.19216672.5496498-1.70501856.7939386-3.3491436 2.137527-4.93237512 4.0307652-1.94859264 2.3818158-2.92288896 4.580415-2.92288896 6.5957976 0 .7939386.24357408 1.4657328.66982872 2.137527.36536112.6717942 1.15697688 1.0382274 2.25306024 1.0382274 1.88769912 0 4.32343992-1.0382274 7.24632888-2.9925378 2.92288896-2.0764548 5.41952328-4.0918374 7.55079648-6.10722.48714816-.4885776.73072224-.4885776.73072224-.0610722 0 .305361-.12178704.5496498-.36536112.7328664-1.522338 1.4046606-2.49663432 2.3207436-2.98378248 2.8093212-.54804168.4275054-1.522338 1.2825162-3.044676 2.442888-1.522338 1.221444-2.7402084 2.0764548-3.6536112 2.5650324-2.86199544 1.526805-5.29773624 2.2596714-7.36811592 2.2596714-2.00948616 0-3.53182416-.4885776-4.74969456-1.4046606-1.09608336-.916083-1.70501856-2.137527-1.70501856-3.7864764 0-3.4811154 1.522338-6.412581 4.62790752-8.9776134 3.10556952-2.5039602 6.33292608-3.7254042 9.68206968-3.7254042 2.25306024 0 3.77539824.4885776 4.567014 1.4657328.3044676.4885776.48714816 1.0382274.48714816 1.526805 0 .5496498-.18268056 1.1603718-.54804168 1.832166-.73072224 1.2825162-2.07037968 2.3818158-4.14075936 3.358971-2.00948616.916083-3.89718528 1.4046606-5.66309736 1.4046606-.66982872 0-1.03518984-.0610722-1.09608336-.1832166-.06089352-.1221444-.06089352-.2442888.12178704-.305361.18268056-.0610722.36536112-.0610722.66982872-.0610722 1.64412504 0 3.53182416-.5496498 5.72399088-1.7100216z" fill-rule="nonzero"/><path d="M152.79914738 73.27778945c.54804168-.6717942.85250928-1.1603718.85250928-1.526805 0-.3664332-.36536112-.5496498-1.09608336-.5496498-.79161576 0-1.94859264.7328664-3.59271768 2.137527-1.522338 1.2825162-3.28825008 3.4811154-5.41952328 6.5347254s-3.71450472 5.1300648-4.62790752 6.1682922c-.97429632 1.0992996-1.8268056 1.6489494-2.55752784 1.6489494h-.24357408c-1.03518984 0-2.07037968-.4275054-3.10556952-1.2825162.24357408-.3664332.85250928-1.1603718 1.76591208-2.3818158 2.07037968-2.5039602 3.89718528-4.9468482 5.41952328-7.328664-1.76591208 1.7710938-3.22735656 3.1146822-4.44522696 4.0918374-.42625464.305361-.6089352.3664332-.66982872.0610722-.06089352-.305361 0-.5496498.24357408-.7939386.24357408-.1832166.66982872-.5496498 1.2178704-1.0992996.54804168-.4885776.97429632-.7939386 1.15697688-.9771552.18268056-.1832166.48714816-.4885776 1.03518984-.9771552.48714816-.4275054.85250928-.7939386 1.09608336-1.0992996 1.15697688-1.3435884 1.94859264-2.5039602 2.49663432-3.4200432.18268056-.4885776.3044676-.9771552.3044676-1.4657328-.06089352-.4275054-.12178704-.7328664-.3044676-.916083-.18268056-.1221444-.3044676-.305361-.24357408-.4885776 0-.305361.18268056-.4885776.48714816-.4885776.18268056 0 .36536112.0610722.54804168.1221444 1.27876392.5496498 1.88769912 1.7100216 1.88769912 3.4200432 0 1.6489494-.36536112 3.4811154-1.09608336 5.3743536 1.58323152-2.0764548 2.80110192-3.5421876 3.59271768-4.4582706 2.1312732-2.3818158 4.20165288-3.5421876 6.21113904-3.5421876s3.16646304.8550108 3.53182416 2.5650324c.06089352.2442888.06089352.610722.06089352 1.0992996 0 .5496498-.18268056 1.221444-.54804168 2.0764548-.42625464.8550108-1.33965744 2.2596714-2.7402084 4.2139818-1.40055096 1.9543104-2.25306024 3.1757544-2.4357408 3.664332-.24357408.5496498-.3044676.916083-.24357408 1.1603718.06089352.2442888.24357408.3664332.54804168.4275054.48714816.0610722 1.33965744-.2442888 2.49663432-.9771552 1.64412504-1.1603718 3.83629176-2.9925378 6.45471312-5.4354258.42625464-.4275054.66982872-.4275054.66982872.1221444 0 .1832166-.12178704.4275054-.3044676.610722-3.9580788 3.664332-6.88096776 5.9240034-8.76866688 6.8400864-2.25306024 1.1603718-3.9580788 1.3435884-5.23684272.5496498-.79161576-.4885776-1.15697688-1.1603718-1.15697688-2.0764548 0-.8550108.18268056-1.7100216.48714816-2.6261046.73072224-2.0764548 2.80110192-5.0689926 6.27203256-8.9776134z" fill-rule="nonzero"/><path d="M171.4325645 66.01019765c.9134028-1.3435884 1.58323152-2.442888 2.19216672-3.2368266.54804168-.7328664.97429632-1.3435884 1.27876392-1.7100216.3044676-.3664332 1.03518984-.6717942 2.19216672-.9771552 1.15697688-.2442888 2.25306024-.3664332 3.28825008-.3664332 1.03518984 0 1.58323152.1221444 1.58323152.305361 0 .2442888-.85250928 1.221444-2.61842136 2.8703934-1.76591208 1.6489494-3.77539824 3.9086208-6.089352 6.6568698 2.7402084.4275054 4.567014 1.3435884 5.41952328 2.6261046.3044676.5496498.36536112.916083.18268056 1.0992996-.24357408.1832166-.48714816.1221444-.79161576-.1832166-.85250928-.8550108-2.19216672-1.2825162-4.07986584-1.2825162-.79161576 0-1.70501856.0610722-2.7402084.2442888-3.28825008 4.2139818-5.35862976 7.6950972-6.21113904 10.382274-.3044676.7939386-.42625464 1.4046606-.42625464 1.9543104 0 1.4046606.6089352 2.137527 1.76591208 2.137527 1.27876392 0 3.044676-.8550108 5.29773624-2.6261046 2.98378248-2.2596714 5.54131032-4.4582706 7.73347704-6.6568698.42625464-.4275054.66982872-.5496498.79161576-.305361.12178704.2442888 0 .4885776-.3044676.7939386-3.47093064 3.664332-6.3938196 6.3515088-8.8295604 8.0615304-2.31395376 1.7710938-4.50612048 2.6261046-6.51560664 2.6261046-2.7402084 0-4.07986584-1.4657328-4.07986584-4.3361262 0-1.4046606.36536112-3.05361 1.15697688-4.9468482l-1.09608336 1.0382274c-.3044676.305361-.54804168.4275054-.66982872.2442888-.18268056-.1221444-.24357408-.2442888-.24357408-.3664332 0-.1221444.18268056-.305361.48714816-.610722 2.98378248-2.6261046 4.99326864-4.580415 6.089352-5.9240034-.79161576.305361-1.27876392.305361-1.522338.0610722-.3044676-.2442888-.48714816-.5496498-.6089352-.9771552-.06089352-.4275054.12178704-.916083.66982872-1.526805.48714816-.5496498 1.2178704-.9771552 2.25306024-1.2825162.97429632-.2442888 1.70501856-.3664332 2.19216672-.4275054.6089352-.916083 1.33965744-2.0153826 2.25306024-3.358971z" fill-rule="nonzero"/><path d="M189.7006205 68.33094125c-.42625464-.3664332-.6089352-.916083-.54804168-1.5878772.06089352-.6717942.42625464-1.4046606 1.09608336-2.1985992.66982872-.7939386 1.522338-1.1603718 2.61842136-1.1603718.3044676 0 .66982872.1221444 1.03518984.4275054.36536112.305361.48714816.8550108.42625464 1.526805-.06089352.7328664-.42625464 1.4046606-.97429632 2.0153826-.54804168.6717942-1.2178704 1.0382274-1.88769912 1.221444-.73072224.1832166-1.33965744.1221444-1.76591208-.2442888zm-.79161576 3.2368266c-1.64412504 1.7100216-3.044676 3.8475486-4.14075936 6.4736532-1.15697688 2.6871768-1.70501856 4.5193428-1.70501856 5.5575702 0 1.0382274.42625464 1.5878772 1.27876392 1.5878772.79161576 0 2.19216672-.610722 4.14075936-1.832166 1.88769912-1.221444 4.07986584-2.9314656 6.57650016-5.191137.54804168-.4885776.79161576-.4275054.79161576.1832166 0 .0610722-.06089352.1832166-.12178704.2442888-1.94859264 1.7100216-3.59271768 3.1146822-4.93237512 4.2139818-1.33965744 1.0992996-2.92288896 2.137527-4.81058808 3.1146822-1.8268056 1.0382274-3.3491436 1.526805-4.50612048 1.526805-1.46144448 0-2.55752784-.305361-3.22735656-.9771552-.73072224-.6717942-1.09608336-1.3435884-1.09608336-2.137527 0-1.4657328.24357408-2.6261046.79161576-3.4811154.54804168-.8550108 1.40055096-2.0153826 2.67931488-3.5421876-.42625464.3664332-1.15697688.9771552-2.07037968 1.832166-.97429632.8550108-1.64412504 1.4046606-2.00948616 1.7100216-.36536112.305361-.54804168.1832166-.54804168-.2442888 0-.305361.3044676-.6717942.97429632-1.221444.66982872-.5496498 2.07037968-1.8932382 4.2625464-4.0307652 2.1312732-2.137527 3.6536112-3.4200432 4.44522696-3.8475486.79161576-.4275054 1.40055096-.610722 1.94859264-.610722.48714816 0 .85250928.0610722 1.09608336.1832166.24357408.1832166.3044676.305361.18268056.4885776z" fill-rule="nonzero"/><path d="M210.22173674 73.27778945c.54804168-.6717942.85250928-1.1603718.85250928-1.526805 0-.3664332-.36536112-.5496498-1.09608336-.5496498-.79161576 0-1.94859264.7328664-3.59271768 2.137527-1.522338 1.2825162-3.28825008 3.4811154-5.41952328 6.5347254s-3.71450472 5.1300648-4.62790752 6.1682922c-.97429632 1.0992996-1.8268056 1.6489494-2.55752784 1.6489494h-.24357408c-1.03518984 0-2.07037968-.4275054-3.10556952-1.2825162.24357408-.3664332.85250928-1.1603718 1.76591208-2.3818158 2.07037968-2.5039602 3.89718528-4.9468482 5.41952328-7.328664-1.76591208 1.7710938-3.22735656 3.1146822-4.44522696 4.0918374-.42625464.305361-.6089352.3664332-.66982872.0610722-.06089352-.305361 0-.5496498.24357408-.7939386.24357408-.1832166.66982872-.5496498 1.2178704-1.0992996.54804168-.4885776.97429632-.7939386 1.15697688-.9771552.18268056-.1832166.48714816-.4885776 1.03518984-.9771552.48714816-.4275054.85250928-.7939386 1.09608336-1.0992996 1.15697688-1.3435884 1.94859264-2.5039602 2.49663432-3.4200432.18268056-.4885776.3044676-.9771552.3044676-1.4657328-.06089352-.4275054-.12178704-.7328664-.3044676-.916083-.18268056-.1221444-.3044676-.305361-.24357408-.4885776 0-.305361.18268056-.4885776.48714816-.4885776.18268056 0 .36536112.0610722.54804168.1221444 1.27876392.5496498 1.88769912 1.7100216 1.88769912 3.4200432 0 1.6489494-.36536112 3.4811154-1.09608336 5.3743536 1.58323152-2.0764548 2.80110192-3.5421876 3.59271768-4.4582706 2.1312732-2.3818158 4.20165288-3.5421876 6.21113904-3.5421876s3.16646304.8550108 3.53182416 2.5650324c.06089352.2442888.06089352.610722.06089352 1.0992996 0 .5496498-.18268056 1.221444-.54804168 2.0764548-.42625464.8550108-1.33965744 2.2596714-2.7402084 4.2139818-1.40055096 1.9543104-2.25306024 3.1757544-2.4357408 3.664332-.24357408.5496498-.3044676.916083-.24357408 1.1603718.06089352.2442888.24357408.3664332.54804168.4275054.48714816.0610722 1.33965744-.2442888 2.49663432-.9771552 1.64412504-1.1603718 3.83629176-2.9925378 6.45471312-5.4354258.42625464-.4275054.66982872-.4275054.66982872.1221444 0 .1832166-.12178704.4275054-.3044676.610722-3.9580788 3.664332-6.88096776 5.9240034-8.76866688 6.8400864-2.25306024 1.1603718-3.9580788 1.3435884-5.23684272.5496498-.79161576-.4885776-1.15697688-1.1603718-1.15697688-2.0764548 0-.8550108.18268056-1.7100216.48714816-2.6261046.73072224-2.0764548 2.80110192-5.0689926 6.27203256-8.9776134z" fill-rule="nonzero"/><path d="M232.14340394 77.43069905c2.1312732-1.1603718 3.22735656-2.3818158 3.22735656-3.6032598s-.73072224-1.832166-2.19216672-1.832166c-.66982872 0-1.40055096.1832166-2.19216672.5496498-1.70501856.7939386-3.3491436 2.137527-4.93237512 4.0307652-1.94859264 2.3818158-2.92288896 4.580415-2.92288896 6.5957976 0 .7939386.24357408 1.4657328.66982872 2.137527.36536112.6717942 1.15697688 1.0382274 2.25306024 1.0382274 1.88769912 0 4.32343992-1.0382274 7.24632888-2.9925378 2.92288896-2.0764548 5.41952328-4.0918374 7.55079648-6.10722.48714816-.4885776.73072224-.4885776.73072224-.0610722 0 .305361-.12178704.5496498-.36536112.7328664-1.522338 1.4046606-2.49663432 2.3207436-2.98378248 2.8093212-.54804168.4275054-1.522338 1.2825162-3.044676 2.442888-1.522338 1.221444-2.7402084 2.0764548-3.6536112 2.5650324-2.86199544 1.526805-5.29773624 2.2596714-7.36811592 2.2596714-2.00948616 0-3.53182416-.4885776-4.74969456-1.4046606-1.09608336-.916083-1.70501856-2.137527-1.70501856-3.7864764 0-3.4811154 1.522338-6.412581 4.62790752-8.9776134 3.10556952-2.5039602 6.33292608-3.7254042 9.68206968-3.7254042 2.25306024 0 3.77539824.4885776 4.567014 1.4657328.3044676.4885776.48714816 1.0382274.48714816 1.526805 0 .5496498-.18268056 1.1603718-.54804168 1.832166-.73072224 1.2825162-2.07037968 2.3818158-4.14075936 3.358971-2.00948616.916083-3.89718528 1.4046606-5.66309736 1.4046606-.66982872 0-1.03518984-.0610722-1.09608336-.1832166-.06089352-.1221444-.06089352-.2442888.12178704-.305361.18268056-.0610722.36536112-.0610722.66982872-.0610722 1.64412504 0 3.53182416-.5496498 5.72399088-1.7100216z" fill-rule="nonzero"/><path d="M235.24897346 83.59899125c-.06089352-.0610722-.06089352-.1221444-.06089352-.1832166 0-.0610722.06089352-.1221444.24357408-.1221444.12178704 0 .18268056.0610722.24357408.2442888.73072224 1.6489494 1.94859264 2.442888 3.59271768 2.442888 2.07037968 0 3.89718528-1.0382274 5.41952328-3.05361 1.15697688-1.526805 2.1312732-3.1146822 3.044676-4.7025594.85250928-1.7100216 1.58323152-2.9925378 2.19216672-3.969693.54804168-.9771552 1.46144448-2.0764548 2.7402084-3.2978988 1.2178704-1.221444 2.31395376-1.9543104 3.3491436-2.2596714-.24357408-.1221444-.66982872-.1832166-1.2178704-.1832166s-1.64412504.4275054-3.16646304 1.2825162c-1.58323152.7939386-3.16646304 1.832166-4.68880104 3.1146822-1.522338 1.2825162-3.22735656 2.748249-4.99326864 4.3971984-1.76591208 1.6489494-2.86199544 2.5650324-3.22735656 2.8703934-.36536112.305361-.6089352.305361-.66982872 0-.06089352-.305361 0-.5496498.3044676-.7939386 1.03518984-.916083 2.55752784-2.3207436 4.567014-4.2139818 2.00948616-1.8932382 3.53182416-3.2368266 4.50612048-4.1529096 1.09608336-.8550108 2.25306024-1.5878772 3.53182416-2.2596714 1.27876392-.610722 2.25306024-.916083 2.92288896-.916083 1.64412504 0 2.61842136.305361 2.98378248.8550108-1.03518984.4275054-1.88769912 1.6489494-2.55752784 3.5421876-.66982872 1.8932382-1.46144448 4.1529096-2.25306024 6.6568698-.85250928 2.5039602-1.88769912 4.5193428-3.16646304 5.9240034 1.03518984-.4275054 2.67931488-1.3435884 4.93237512-2.8703934 2.19216672-1.4657328 4.14075936-3.05361 5.84577792-4.8247038.36536112-.305361.6089352-.3664332.79161576-.1221444v.2442888c0 .1221444-.36536112.5496498-1.15697688 1.3435884s-1.70501856 1.6489494-2.80110192 2.5650324c-1.15697688.9771552-2.55752784 2.0764548-4.20165288 3.2368266-3.47093064 2.442888-6.88096776 3.664332-10.3518984 3.664332-3.47093064 0-5.72399088-1.4657328-6.6982872-4.4582706z" fill-rule="nonzero"/></g><g><path d="M114.49689674 106.16297138c-.80118396 1.2797058-1.1869392 2.5594116-1.1869392 3.8986386 0 1.4582694.53412264 2.7677358 1.57269444 3.9581598.56379612.6844938 1.30563312 1.190424 2.19583752 1.5773118.86053092.3868878 1.83975576.5654514 2.87832756.5654514 1.0385718 0 1.98812316-.2083242 2.8189806-.595212 1.66171488-.8035362 2.49257232-2.1427632 2.49257232-3.9879204 0-.6844938-.23738784-1.4285088-.68249004-2.2022844-.47477568-.7737756-1.1869392-1.4582694-2.10681708-2.083242l-5.0444916-3.3927084c-1.95844968-1.2201846-2.93767452-2.827257-2.93767452-4.761696 0-.2083242 0-.3868878.02967348-.595212.11869392-1.5177906.71216352-2.7677358 1.83975576-3.7498356 1.09791876-.9523392 2.55191928-1.4285088 4.39167504-1.4285088 1.12759224 0 2.49257232.0892818 4.09494024.297606h1.83975576l-.38575524 4.3748082h-.26706132c-.02967348-1.041621-.41542872-1.8749178-1.1869392-2.4998904-.77151048-.6249726-1.7804088-.9225786-3.05636844-.9225786-1.54302096 0-2.6706132.4761696-3.35310324 1.3987482-.32640828.4761696-.50444916.9820998-.50444916 1.5475512s.17804088 1.0118604.50444916 1.3987482c.32640828.3868878.86053092.8332968 1.60236792 1.2797058l5.54894076 3.6307932c1.12759224.744015 2.01779664 1.6070724 2.64093972 2.5891722.741837 1.1606634 1.12759224 2.380848 1.12759224 3.6010326 0 .8035362-.1483674 1.636833-.47477568 2.4998904-.32640828.892818-.86053092 1.7261148-1.60236792 2.4701298-.741837.744015-1.72106184 1.3689876-2.87832756 1.8451572-1.15726572.4761696-2.46289884.7142544-3.8575524.7142544-1.42432704 0-2.70028668-.2380848-3.8575524-.744015-2.10681708-.892818-3.47179716-2.4403692-4.03559328-4.6724142-.11869392-.4761696-.17804088-.9820998-.17804088-1.48803 0-1.6665936.5934696-3.2439054 1.75073532-4.7319354l.26706132.2083242zM152.0931959 114.31737578h.26706132v.297606h-9.46584012v-.297606h.26706132c.4451022 0 .77151048-.148803.94955136-.4166484.20771436-.2678454.32640828-.5059302.32640828-.744015 0-.2380848-.05934696-.4761696-.1483674-.7142544l-1.45400052-3.6605538h-6.94359432l-1.54302096 3.6605538c-.08902044.2678454-.1483674.5059302-.1483674.7142544 0 .2380848.11869392.4761696.32640828.744015.20771436.2678454.53412264.4166484.97922484.4166484h.23738784v.297606h-6.35012472v-.297606h.26706132c.4451022 0 .91987788-.148803 1.36498008-.4166484s.83085744-.6844938 1.12759224-1.2499452l6.85457388-15.5647938c.91987788-1.9641996 1.42432704-3.273666 1.483674-3.8986386h.26706132l8.81302356 19.4039112c.2967348.5654514.68249004 1.0118604 1.12759224 1.2797058.4451022.297606.91987788.446409 1.39465356.446409zm-15.69727092-6.7854168h5.934696l-2.87832756-7.3211076-3.05636844 7.3211076zM153.07242074 114.31737578c.50444916 0 .94955136-.1785636 1.3353066-.5654514.35608176-.3571272.53412264-.8035362.56379612-1.3094664v-16.4873724c-.02967348-.5059302-.20771436-.9523392-.56379612-1.339227-.38575524-.3571272-.83085744-.5356908-1.3353066-.5356908h-.38575524v-.297606h9.02073792l-.02967348.297606h-.35608176c-.50444916 0-.94955136.1785636-1.3353066.5356908-.38575524.3868878-.56379612.8332968-.56379612 1.339227v17.3801904h3.88722588c1.45400052 0 2.6706132-.4166484 3.64983804-1.2499452.97922484-.8332968 1.69138836-2.0237208 2.16616404-3.5415114h.2967348l-1.36498008 6.0711624H152.6866655v-.297606h.38575524zM171.17324354 114.31737578c.50444916 0 .94955136-.1785636 1.3353066-.5654514.35608176-.3571272.53412264-.8035362.56379612-1.3094664v-16.5766542c-.05934696-.6844938-.38575524-1.2201846-.97922484-1.5475512-.2967348-.148803-.5934696-.2380848-.91987788-.2380848h-.38575524v-.297606h11.36494284c.62314308 0 1.27595964-.0595212 2.01779664-.1785636.741837-.1190424 1.24628616-.2380848 1.54302096-.3571272v5.208105h-.2967348v-.3571272c0-.892818-.26706132-1.6070724-.80118396-2.1427632-.50444916-.5654514-1.21661268-.8630574-2.10681708-.892818h-4.98514464v8.6603346h3.91689936c.741837-.0297606 1.3353066-.2678454 1.81008228-.7737756.47477568-.4761696.71216352-1.0713816.71216352-1.785636v-.2678454h.2967348v6.8746986h-.2967348v-.2380848c0-.9820998-.38575524-1.7261148-1.1869392-2.2022844-.38575524-.2083242-.83085744-.3273666-1.30563312-.3571272h-3.94657284v8.3627286h3.88722588c1.45400052 0 2.6706132-.4166484 3.64983804-1.2499452.97922484-.8332968 1.69138836-2.0237208 2.16616404-3.5415114h.2967348l-1.36498008 6.0711624H170.7874883v-.297606h.38575524z" fill-rule="nonzero"/></g></svg>