<svg width="100%" height="100%" viewBox="0 0 737 293" version="1.1" xmlns="http://www.w3.org/2000/svg" xmlns:xlink="http://www.w3.org/1999/xlink" xml:space="preserve" xmlns:serif="http://www.serif.com/" style="fill-rule:evenodd;clip-rule:evenodd;stroke-linejoin:round;stroke-miterlimit:2;">
    <g transform="matrix(1,0,0,1,-260,-164)">
        <g>
            <g transform="matrix(12.6057,0,0,12.6057,-7573.93,-2442.5)">
                <g transform="matrix(12,0,0,12,664.42,229.952)">
                    <path d="M0.31,-0.208C0.31,-0.285 0.26,-0.337 0.203,-0.391L0.184,-0.409C0.141,-0.448 0.11,-0.48 0.11,-0.54L0.11,-0.585C0.11,-0.656 0.14,-0.69 0.175,-0.69C0.21,-0.69 0.24,-0.656 0.24,-0.585L0.24,-0.475L0.3,-0.475L0.3,-0.565C0.3,-0.65 0.245,-0.705 0.175,-0.705C0.137,-0.705 0.106,-0.692 0.082,-0.667C0.057,-0.642 0.045,-0.607 0.045,-0.565L0.045,-0.52C0.045,-0.446 0.085,-0.409 0.133,-0.364L0.152,-0.346C0.209,-0.291 0.245,-0.259 0.245,-0.176L0.245,-0.12C0.245,-0.044 0.214,-0.01 0.175,-0.01C0.135,-0.01 0.105,-0.044 0.105,-0.12L0.105,-0.25L0.045,-0.25L0.045,-0.16C0.045,-0.105 0.057,-0.063 0.082,-0.036C0.105,-0.009 0.137,0.005 0.175,0.005C0.215,0.005 0.248,-0.009 0.272,-0.036C0.297,-0.063 0.31,-0.105 0.31,-0.16L0.31,-0.208Z" style="fill:white;fill-rule:nonzero;"/>
                </g>
                <g transform="matrix(12,0,0,12,668.615,229.952)">
                    <path d="M0.222,-0.077C0.219,-0.064 0.214,-0.053 0.209,-0.044C0.2,-0.028 0.186,-0.012 0.164,-0.012C0.132,-0.012 0.112,-0.033 0.112,-0.114L0.112,-0.182C0.112,-0.265 0.133,-0.284 0.164,-0.284C0.186,-0.284 0.2,-0.267 0.209,-0.251C0.214,-0.241 0.219,-0.23 0.222,-0.218L0.222,-0.077ZM0.226,-0L0.284,-0L0.284,-0.395C0.284,-0.484 0.242,-0.525 0.17,-0.525C0.097,-0.525 0.055,-0.484 0.055,-0.402L0.055,-0.395C0.055,-0.38 0.066,-0.364 0.086,-0.364C0.107,-0.364 0.118,-0.38 0.118,-0.395L0.118,-0.428C0.118,-0.489 0.138,-0.51 0.17,-0.51C0.201,-0.51 0.222,-0.49 0.222,-0.426L0.222,-0.25C0.219,-0.26 0.215,-0.269 0.209,-0.276C0.199,-0.29 0.18,-0.302 0.149,-0.302C0.085,-0.302 0.045,-0.261 0.045,-0.182L0.045,-0.114C0.045,-0.03 0.081,0.005 0.15,0.005C0.178,0.005 0.196,-0.008 0.208,-0.023C0.215,-0.031 0.22,-0.041 0.224,-0.052L0.226,-0Z" style="fill:white;fill-rule:nonzero;"/>
                </g>
                <g transform="matrix(12,0,0,12,672.681,229.952)">
                    <rect x="0.06" y="-0.7" width="0.061" height="0.7" style="fill:white;fill-rule:nonzero;"/>
                </g>
                <g transform="matrix(12,0,0,12,674.849,229.952)">
                    <path d="M0.284,-0.374C0.284,-0.474 0.232,-0.525 0.17,-0.525C0.136,-0.525 0.107,-0.512 0.084,-0.487C0.062,-0.462 0.05,-0.424 0.05,-0.374L0.05,-0.146C0.05,-0.096 0.062,-0.058 0.084,-0.033C0.107,-0.008 0.136,0.005 0.17,0.005C0.232,0.005 0.284,-0.046 0.284,-0.146L0.284,-0.187L0.227,-0.187L0.227,-0.104C0.227,-0.036 0.201,-0.01 0.17,-0.01C0.138,-0.01 0.112,-0.036 0.112,-0.104L0.112,-0.296L0.284,-0.296L0.284,-0.374ZM0.227,-0.313L0.112,-0.313L0.112,-0.416C0.112,-0.484 0.138,-0.51 0.17,-0.51C0.185,-0.51 0.199,-0.502 0.21,-0.488C0.221,-0.474 0.227,-0.45 0.227,-0.416L0.227,-0.313Z" style="fill:white;fill-rule:nonzero;"/>
                </g>
            </g>
            <g transform="matrix(12.6057,0,0,12.6057,-8120.93,-2560.13)">
                <g transform="matrix(12,0,0,12,664.42,229.952)">
                    <path d="M0.6,-0.71C0.597,-0.687 0.585,-0.676 0.564,-0.676C0.548,-0.676 0.523,-0.682 0.49,-0.693C0.457,-0.704 0.425,-0.71 0.394,-0.71C0.288,-0.71 0.202,-0.676 0.136,-0.608C0.07,-0.541 0.037,-0.453 0.037,-0.346C0.037,-0.241 0.067,-0.156 0.128,-0.089C0.189,-0.022 0.273,0.011 0.38,0.011C0.455,0.011 0.513,-0.008 0.553,-0.047C0.593,-0.086 0.613,-0.134 0.613,-0.19C0.613,-0.275 0.563,-0.335 0.484,-0.335C0.419,-0.335 0.372,-0.29 0.372,-0.227C0.372,-0.167 0.414,-0.123 0.474,-0.123C0.541,-0.123 0.562,-0.182 0.562,-0.182L0.56,-0.182L0.553,-0.168C0.544,-0.149 0.513,-0.125 0.474,-0.125C0.415,-0.125 0.374,-0.168 0.374,-0.227C0.374,-0.288 0.42,-0.333 0.484,-0.333C0.561,-0.333 0.61,-0.275 0.61,-0.19C0.61,-0.139 0.593,-0.097 0.56,-0.064C0.527,-0.031 0.484,-0.015 0.431,-0.015C0.365,-0.015 0.313,-0.046 0.276,-0.107C0.239,-0.168 0.221,-0.251 0.221,-0.355C0.221,-0.575 0.284,-0.704 0.409,-0.704C0.515,-0.704 0.578,-0.633 0.599,-0.49L0.603,-0.49L0.603,-0.71L0.6,-0.71Z" style="fill:white;fill-rule:nonzero;"/>
                </g>
                <g transform="matrix(12,0,0,12,672.172,229.952)">
                    <path d="M0.476,-0.754C0.411,-0.754 0.359,-0.735 0.32,-0.698C0.281,-0.661 0.261,-0.616 0.261,-0.563C0.261,-0.514 0.275,-0.475 0.303,-0.445C0.331,-0.415 0.365,-0.4 0.405,-0.4C0.534,-0.4 0.541,-0.509 0.541,-0.521L0.539,-0.521C0.539,-0.508 0.536,-0.49 0.52,-0.458C0.505,-0.426 0.464,-0.402 0.405,-0.402C0.366,-0.402 0.333,-0.417 0.305,-0.447C0.277,-0.477 0.263,-0.516 0.263,-0.563C0.263,-0.616 0.282,-0.66 0.321,-0.697C0.36,-0.734 0.412,-0.752 0.476,-0.752C0.54,-0.752 0.596,-0.729 0.644,-0.684C0.693,-0.639 0.717,-0.574 0.717,-0.489C0.717,-0.41 0.69,-0.34 0.636,-0.281C0.582,-0.222 0.51,-0.193 0.421,-0.193C0.364,-0.193 0.316,-0.209 0.275,-0.241C0.234,-0.273 0.214,-0.319 0.214,-0.378C0.214,-0.441 0.252,-0.485 0.301,-0.485C0.346,-0.485 0.375,-0.453 0.375,-0.401L0.375,-0.121C0.375,-0.038 0.425,0.011 0.49,0.011C0.562,0.011 0.601,-0.039 0.604,-0.096L0.6,-0.096C0.599,-0.065 0.583,-0.044 0.559,-0.044C0.533,-0.044 0.52,-0.063 0.52,-0.1L0.52,-0.332C0.52,-0.449 0.466,-0.517 0.367,-0.517C0.274,-0.517 0.211,-0.456 0.211,-0.379C0.211,-0.318 0.232,-0.272 0.273,-0.239C0.314,-0.207 0.364,-0.191 0.421,-0.191C0.51,-0.191 0.582,-0.221 0.637,-0.28C0.692,-0.339 0.719,-0.409 0.719,-0.489C0.719,-0.577 0.688,-0.65 0.64,-0.691C0.593,-0.732 0.536,-0.754 0.476,-0.754ZM0.012,-0.7L0.012,-0.697L0.071,-0.697L0.071,-0.003L0.012,-0.003L0.012,-0L0.266,-0L0.266,-0.003L0.214,-0.003L0.214,-0.7L0.012,-0.7Z" style="fill:white;fill-rule:nonzero;"/>
                </g>
                <g transform="matrix(12,0,0,12,679.384,229.952)">
                    <path d="M0.364,-0.515C0.271,-0.515 0.232,-0.422 0.218,-0.387L0.214,-0.377L0.214,-0.507L0.012,-0.507L0.012,-0.504L0.071,-0.504L0.071,-0.003L0.012,-0.003L0.012,-0L0.281,-0L0.281,-0.003L0.214,-0.003L0.214,-0.304C0.214,-0.39 0.26,-0.511 0.364,-0.511C0.428,-0.511 0.46,-0.471 0.465,-0.443C0.509,-0.424 0.537,-0.379 0.537,-0.318C0.537,-0.227 0.48,-0.17 0.395,-0.17C0.356,-0.17 0.323,-0.182 0.297,-0.205C0.271,-0.229 0.258,-0.259 0.258,-0.296L0.256,-0.296C0.256,-0.223 0.315,-0.168 0.395,-0.168C0.482,-0.168 0.539,-0.226 0.539,-0.318C0.539,-0.405 0.484,-0.458 0.405,-0.458C0.365,-0.458 0.335,-0.431 0.335,-0.39C0.335,-0.351 0.365,-0.324 0.404,-0.324C0.444,-0.324 0.474,-0.357 0.474,-0.404C0.474,-0.469 0.433,-0.515 0.364,-0.515Z" style="fill:white;fill-rule:nonzero;"/>
                </g>
                <g transform="matrix(12,0,0,12,685.228,229.952)">
                    <path d="M0.101,-0.758C0.021,-0.758 -0.03,-0.703 -0.03,-0.635C-0.03,-0.569 0.005,-0.528 0.074,-0.512L0.074,-0.003L0.014,-0.003L0.014,-0L0.276,-0L0.276,-0.003L0.218,-0.003L0.218,-0.507L0.141,-0.507C0.032,-0.507 -0.028,-0.554 -0.028,-0.635C-0.028,-0.702 0.022,-0.756 0.101,-0.756C0.157,-0.756 0.19,-0.727 0.19,-0.707C0.19,-0.702 0.188,-0.7 0.183,-0.7C0.183,-0.7 0.163,-0.706 0.148,-0.706C0.104,-0.706 0.072,-0.68 0.072,-0.639C0.072,-0.599 0.105,-0.571 0.15,-0.571C0.199,-0.571 0.231,-0.603 0.231,-0.651C0.231,-0.708 0.186,-0.758 0.101,-0.758Z" style="fill:white;fill-rule:nonzero;"/>
                </g>
                <g transform="matrix(12,0,0,12,688.696,229.952)">
                    <path d="M0.281,-0.61C0.18,-0.61 0.098,-0.58 0.037,-0.52C-0.024,-0.461 -0.055,-0.386 -0.055,-0.295C-0.055,-0.231 -0.038,-0.176 -0.004,-0.131C0.029,-0.086 0.068,-0.063 0.111,-0.063C0.146,-0.063 0.173,-0.084 0.173,-0.119C0.173,-0.155 0.148,-0.179 0.107,-0.179C0.072,-0.179 0.048,-0.152 0.048,-0.115C0.048,-0.048 0.104,0.01 0.219,0.01C0.367,0.01 0.451,-0.056 0.451,-0.156C0.451,-0.274 0.351,-0.3 0.271,-0.323C0.218,-0.339 0.174,-0.37 0.174,-0.425C0.174,-0.477 0.207,-0.511 0.271,-0.511C0.362,-0.511 0.416,-0.444 0.433,-0.339L0.436,-0.339L0.436,-0.517L0.433,-0.517C0.432,-0.498 0.423,-0.489 0.405,-0.489C0.396,-0.489 0.376,-0.494 0.345,-0.504C0.314,-0.514 0.282,-0.519 0.25,-0.519C0.113,-0.519 0.046,-0.451 0.046,-0.356C0.046,-0.244 0.144,-0.217 0.222,-0.19C0.277,-0.171 0.319,-0.139 0.319,-0.084C0.319,-0.032 0.276,0.004 0.208,0.004C0.133,0.004 0.074,-0.028 0.057,-0.08C0.032,-0.091 0.008,-0.115 -0.016,-0.154C-0.041,-0.193 -0.053,-0.24 -0.053,-0.295C-0.053,-0.386 -0.023,-0.46 0.038,-0.519C0.099,-0.578 0.18,-0.608 0.281,-0.608C0.378,-0.608 0.453,-0.582 0.507,-0.53C0.562,-0.478 0.589,-0.413 0.589,-0.335C0.589,-0.265 0.569,-0.209 0.529,-0.166C0.49,-0.124 0.438,-0.103 0.374,-0.103C0.27,-0.103 0.2,-0.171 0.2,-0.271C0.2,-0.358 0.255,-0.418 0.339,-0.418L0.339,-0.42C0.255,-0.42 0.198,-0.359 0.198,-0.271C0.198,-0.17 0.269,-0.101 0.374,-0.101C0.439,-0.101 0.491,-0.122 0.531,-0.165C0.571,-0.208 0.591,-0.264 0.591,-0.335C0.591,-0.414 0.564,-0.479 0.509,-0.531C0.454,-0.584 0.378,-0.61 0.281,-0.61Z" style="fill:white;fill-rule:nonzero;"/>
                </g>
                <g transform="matrix(12,0,0,12,694.504,229.952)">
                    <path d="M0.062,-0.604L0.062,-0.507L0.007,-0.507L0.007,-0.504L0.062,-0.504L0.062,-0.15C0.062,-0.043 0.114,0.011 0.219,0.011C0.322,0.011 0.374,-0.064 0.374,-0.167C0.374,-0.234 0.35,-0.287 0.303,-0.326C0.256,-0.366 0.199,-0.386 0.134,-0.386C0.052,-0.386 -0.012,-0.361 -0.058,-0.31C-0.105,-0.26 -0.128,-0.198 -0.128,-0.125C-0.128,-0.047 -0.106,0.012 -0.061,0.051C-0.017,0.09 0.035,0.11 0.096,0.11C0.151,0.11 0.195,0.093 0.228,0.06C0.261,0.027 0.278,-0.013 0.278,-0.059C0.278,-0.148 0.22,-0.203 0.145,-0.203C0.028,-0.203 0.02,-0.102 0.02,-0.093L0.022,-0.093C0.022,-0.103 0.028,-0.201 0.145,-0.201C0.218,-0.201 0.276,-0.146 0.276,-0.059C0.276,-0.014 0.259,0.025 0.226,0.058C0.193,0.091 0.149,0.108 0.096,0.108C-0.011,0.108 -0.126,0.042 -0.126,-0.125C-0.126,-0.198 -0.103,-0.259 -0.057,-0.309C-0.011,-0.359 0.053,-0.384 0.134,-0.384C0.199,-0.384 0.254,-0.364 0.301,-0.325C0.348,-0.286 0.371,-0.234 0.371,-0.167C0.371,-0.083 0.338,-0.04 0.286,-0.04C0.23,-0.04 0.206,-0.076 0.206,-0.149L0.206,-0.504L0.357,-0.504L0.357,-0.507L0.206,-0.507L0.206,-0.662L0.062,-0.604Z" style="fill:white;fill-rule:nonzero;"/>
                </g>
                <g transform="matrix(12,0,0,12,698.944,229.952)">
                    <path d="M0.665,-0.517C0.548,-0.517 0.511,-0.43 0.504,-0.406C0.488,-0.478 0.439,-0.517 0.37,-0.517C0.294,-0.517 0.241,-0.483 0.212,-0.416L0.212,-0.507L0.012,-0.507L0.012,-0.504L0.071,-0.504L0.071,-0.003L0.012,-0.003L0.012,-0L0.264,-0L0.264,-0.003L0.212,-0.003L0.212,-0.366C0.212,-0.435 0.246,-0.484 0.297,-0.484C0.337,-0.484 0.365,-0.456 0.365,-0.403L0.365,-0.003L0.316,-0.003L0.316,-0L0.559,-0L0.559,-0.003L0.508,-0.003L0.508,-0.366C0.508,-0.437 0.542,-0.484 0.593,-0.484C0.633,-0.484 0.66,-0.456 0.66,-0.403L0.66,-0.121C0.66,-0.037 0.709,0.011 0.773,0.011C0.845,0.011 0.885,-0.039 0.885,-0.1C0.885,-0.173 0.831,-0.219 0.752,-0.219C0.665,-0.219 0.607,-0.159 0.607,-0.075C0.607,0.024 0.676,0.088 0.775,0.088C0.836,0.088 0.886,0.068 0.925,0.029C0.964,-0.01 0.983,-0.061 0.983,-0.125C0.983,-0.198 0.955,-0.258 0.898,-0.306C0.842,-0.355 0.764,-0.379 0.663,-0.379C0.557,-0.379 0.47,-0.347 0.403,-0.284C0.336,-0.221 0.303,-0.143 0.303,-0.049C0.303,0.029 0.326,0.093 0.372,0.143C0.419,0.194 0.476,0.219 0.544,0.219C0.631,0.217 0.679,0.185 0.698,0.152C0.715,0.128 0.716,0.121 0.717,0.116L0.715,0.116L0.712,0.126C0.707,0.141 0.691,0.161 0.668,0.181C0.645,0.201 0.599,0.217 0.544,0.217C0.476,0.217 0.419,0.192 0.373,0.142C0.328,0.092 0.305,0.028 0.305,-0.049C0.305,-0.143 0.338,-0.221 0.405,-0.283C0.472,-0.346 0.558,-0.377 0.663,-0.377C0.763,-0.377 0.841,-0.353 0.897,-0.305C0.953,-0.257 0.981,-0.197 0.981,-0.125C0.981,-0.061 0.962,-0.01 0.923,0.028C0.885,0.067 0.836,0.086 0.775,0.086C0.678,0.086 0.609,0.021 0.609,-0.075C0.609,-0.159 0.665,-0.217 0.752,-0.217C0.831,-0.217 0.883,-0.172 0.883,-0.1C0.883,-0.067 0.866,-0.044 0.842,-0.044C0.816,-0.044 0.803,-0.063 0.803,-0.1L0.803,-0.334C0.803,-0.456 0.757,-0.517 0.665,-0.517Z" style="fill:white;fill-rule:nonzero;"/>
                </g>
                <g transform="matrix(12,0,0,12,709.456,229.952)">
                    <path d="M0.276,-0.685C0.172,-0.683 0.111,-0.644 0.08,-0.606C0.056,-0.579 0.054,-0.572 0.051,-0.565L0.053,-0.565L0.059,-0.577C0.067,-0.593 0.091,-0.618 0.122,-0.641C0.154,-0.665 0.212,-0.683 0.276,-0.683C0.351,-0.683 0.412,-0.66 0.46,-0.614C0.508,-0.568 0.532,-0.507 0.532,-0.432C0.532,-0.348 0.507,-0.282 0.456,-0.234C0.405,-0.186 0.344,-0.162 0.272,-0.162C0.144,-0.162 0.061,-0.234 0.061,-0.346C0.061,-0.393 0.077,-0.432 0.11,-0.462C0.143,-0.492 0.183,-0.507 0.228,-0.507C0.296,-0.507 0.338,-0.47 0.338,-0.402C0.338,-0.335 0.305,-0.292 0.26,-0.273C0.238,-0.264 0.214,-0.256 0.188,-0.247C0.112,-0.224 0.038,-0.205 0.038,-0.111C0.038,-0.036 0.096,0.011 0.176,0.011C0.253,0.011 0.305,-0.024 0.333,-0.094C0.347,-0.024 0.386,0.011 0.449,0.011C0.52,0.011 0.555,-0.037 0.558,-0.096L0.555,-0.096C0.554,-0.068 0.54,-0.044 0.513,-0.044C0.486,-0.044 0.472,-0.062 0.472,-0.097L0.472,-0.337C0.472,-0.456 0.402,-0.52 0.267,-0.52C0.204,-0.52 0.154,-0.503 0.116,-0.47C0.078,-0.437 0.059,-0.396 0.059,-0.346C0.059,-0.233 0.144,-0.16 0.272,-0.16C0.344,-0.16 0.406,-0.184 0.457,-0.232C0.508,-0.281 0.534,-0.347 0.534,-0.432C0.534,-0.507 0.51,-0.568 0.461,-0.615C0.412,-0.662 0.351,-0.685 0.276,-0.685ZM0.33,-0.123C0.33,-0.068 0.299,-0.032 0.254,-0.032C0.211,-0.032 0.181,-0.065 0.181,-0.125C0.181,-0.182 0.209,-0.227 0.238,-0.247C0.267,-0.268 0.311,-0.301 0.33,-0.333L0.33,-0.123Z" style="fill:white;fill-rule:nonzero;"/>
                </g>
                <g transform="matrix(12,0,0,12,716.176,229.952)">
                    <path d="M0.281,-0.61C0.18,-0.61 0.098,-0.58 0.037,-0.52C-0.024,-0.461 -0.055,-0.386 -0.055,-0.295C-0.055,-0.231 -0.038,-0.176 -0.004,-0.131C0.029,-0.086 0.068,-0.063 0.111,-0.063C0.146,-0.063 0.173,-0.084 0.173,-0.119C0.173,-0.155 0.148,-0.179 0.107,-0.179C0.072,-0.179 0.048,-0.152 0.048,-0.115C0.048,-0.048 0.104,0.01 0.219,0.01C0.367,0.01 0.451,-0.056 0.451,-0.156C0.451,-0.274 0.351,-0.3 0.271,-0.323C0.218,-0.339 0.174,-0.37 0.174,-0.425C0.174,-0.477 0.207,-0.511 0.271,-0.511C0.362,-0.511 0.416,-0.444 0.433,-0.339L0.436,-0.339L0.436,-0.517L0.433,-0.517C0.432,-0.498 0.423,-0.489 0.405,-0.489C0.396,-0.489 0.376,-0.494 0.345,-0.504C0.314,-0.514 0.282,-0.519 0.25,-0.519C0.113,-0.519 0.046,-0.451 0.046,-0.356C0.046,-0.244 0.144,-0.217 0.222,-0.19C0.277,-0.171 0.319,-0.139 0.319,-0.084C0.319,-0.032 0.276,0.004 0.208,0.004C0.133,0.004 0.074,-0.028 0.057,-0.08C0.032,-0.091 0.008,-0.115 -0.016,-0.154C-0.041,-0.193 -0.053,-0.24 -0.053,-0.295C-0.053,-0.386 -0.023,-0.46 0.038,-0.519C0.099,-0.578 0.18,-0.608 0.281,-0.608C0.378,-0.608 0.453,-0.582 0.507,-0.53C0.562,-0.478 0.589,-0.413 0.589,-0.335C0.589,-0.265 0.569,-0.209 0.529,-0.166C0.49,-0.124 0.438,-0.103 0.374,-0.103C0.27,-0.103 0.2,-0.171 0.2,-0.271C0.2,-0.358 0.255,-0.418 0.339,-0.418L0.339,-0.42C0.255,-0.42 0.198,-0.359 0.198,-0.271C0.198,-0.17 0.269,-0.101 0.374,-0.101C0.439,-0.101 0.491,-0.122 0.531,-0.165C0.571,-0.208 0.591,-0.264 0.591,-0.335C0.591,-0.414 0.564,-0.479 0.509,-0.531C0.454,-0.584 0.378,-0.61 0.281,-0.61Z" style="fill:white;fill-rule:nonzero;"/>
                </g>
            </g>
            <g transform="matrix(0.449548,0,0,0.449548,140.826,111.151)">
                <g transform="matrix(151.268,0,0,151.268,325.596,225.882)">
                    <path d="M0.31,-0.208C0.31,-0.285 0.26,-0.337 0.203,-0.391L0.184,-0.409C0.141,-0.448 0.11,-0.48 0.11,-0.54L0.11,-0.585C0.11,-0.656 0.14,-0.69 0.175,-0.69C0.21,-0.69 0.24,-0.656 0.24,-0.585L0.24,-0.475L0.3,-0.475L0.3,-0.565C0.3,-0.65 0.245,-0.705 0.175,-0.705C0.137,-0.705 0.106,-0.692 0.082,-0.667C0.057,-0.642 0.045,-0.607 0.045,-0.565L0.045,-0.52C0.045,-0.446 0.085,-0.409 0.133,-0.364L0.152,-0.346C0.209,-0.291 0.245,-0.259 0.245,-0.176L0.245,-0.12C0.245,-0.044 0.214,-0.01 0.175,-0.01C0.135,-0.01 0.105,-0.044 0.105,-0.12L0.105,-0.25L0.045,-0.25L0.045,-0.16C0.045,-0.105 0.057,-0.063 0.082,-0.036C0.105,-0.009 0.137,0.005 0.175,0.005C0.215,0.005 0.248,-0.009 0.272,-0.036C0.297,-0.063 0.31,-0.105 0.31,-0.16L0.31,-0.208Z" style="fill:white;fill-rule:nonzero;"/>
                </g>
                <g transform="matrix(151.268,0,0,151.268,378.481,225.882)">
                    <path d="M0.122,-0L0.122,-0.52L0.059,-0.52L0.059,-0L0.122,-0ZM0.125,-0.63C0.125,-0.65 0.11,-0.665 0.09,-0.665C0.07,-0.665 0.055,-0.65 0.055,-0.63L0.055,-0.625C0.055,-0.605 0.07,-0.59 0.09,-0.59C0.11,-0.59 0.125,-0.605 0.125,-0.625L0.125,-0.63Z" style="fill:white;fill-rule:nonzero;"/>
                </g>
                <g transform="matrix(151.268,0,0,151.268,405.662,225.882)">
                    <rect x="0.06" y="-0.7" width="0.061" height="0.7" style="fill:white;fill-rule:nonzero;"/>
                </g>
                <g transform="matrix(151.268,0,0,151.268,432.991,225.882)">
                    <path d="M0.123,-0.7L0.06,-0.7L0.06,-0L0.123,-0L0.123,-0.27L0.138,-0.27L0.253,-0L0.324,-0L0.184,-0.307L0.294,-0.52L0.272,-0.52L0.147,-0.286L0.123,-0.286L0.123,-0.7Z" style="fill:white;fill-rule:nonzero;"/>
                </g>
                <g transform="matrix(151.268,0,0,151.268,481.222,225.882)">
                    <path d="M0.284,-0.374C0.284,-0.474 0.232,-0.525 0.17,-0.525C0.136,-0.525 0.107,-0.512 0.084,-0.487C0.062,-0.462 0.05,-0.424 0.05,-0.374L0.05,-0.146C0.05,-0.096 0.062,-0.058 0.084,-0.033C0.107,-0.008 0.136,0.005 0.17,0.005C0.232,0.005 0.284,-0.046 0.284,-0.146L0.284,-0.187L0.227,-0.187L0.227,-0.104C0.227,-0.036 0.201,-0.01 0.17,-0.01C0.138,-0.01 0.112,-0.036 0.112,-0.104L0.112,-0.296L0.284,-0.296L0.284,-0.374ZM0.227,-0.313L0.112,-0.313L0.112,-0.416C0.112,-0.484 0.138,-0.51 0.17,-0.51C0.185,-0.51 0.199,-0.502 0.21,-0.488C0.221,-0.474 0.227,-0.45 0.227,-0.416L0.227,-0.313Z" style="fill:white;fill-rule:nonzero;"/>
                </g>
                <g transform="matrix(151.268,0,0,151.268,530.931,225.882)">
                    <rect x="0.06" y="-0.7" width="0.061" height="0.7" style="fill:white;fill-rule:nonzero;"/>
                </g>
                <g transform="matrix(151.268,0,0,151.268,558.259,225.882)">
                    <path d="M0.222,-0.077C0.219,-0.064 0.214,-0.053 0.209,-0.044C0.2,-0.028 0.186,-0.012 0.164,-0.012C0.132,-0.012 0.112,-0.033 0.112,-0.114L0.112,-0.182C0.112,-0.265 0.133,-0.284 0.164,-0.284C0.186,-0.284 0.2,-0.267 0.209,-0.251C0.214,-0.241 0.219,-0.23 0.222,-0.218L0.222,-0.077ZM0.226,-0L0.284,-0L0.284,-0.395C0.284,-0.484 0.242,-0.525 0.17,-0.525C0.097,-0.525 0.055,-0.484 0.055,-0.402L0.055,-0.395C0.055,-0.38 0.066,-0.364 0.086,-0.364C0.107,-0.364 0.118,-0.38 0.118,-0.395L0.118,-0.428C0.118,-0.489 0.138,-0.51 0.17,-0.51C0.201,-0.51 0.222,-0.49 0.222,-0.426L0.222,-0.25C0.219,-0.26 0.215,-0.269 0.209,-0.276C0.199,-0.29 0.18,-0.302 0.149,-0.302C0.085,-0.302 0.045,-0.261 0.045,-0.182L0.045,-0.114C0.045,-0.03 0.081,0.005 0.15,0.005C0.178,0.005 0.196,-0.008 0.208,-0.023C0.215,-0.031 0.22,-0.041 0.224,-0.052L0.226,-0Z" style="fill:white;fill-rule:nonzero;"/>
                </g>
                <g transform="matrix(151.268,0,0,151.268,609.519,225.882)">
                    <path d="M0.242,-0L0.305,-0L0.305,-0.395C0.305,-0.489 0.269,-0.525 0.206,-0.525C0.171,-0.525 0.151,-0.509 0.139,-0.491C0.132,-0.481 0.126,-0.47 0.123,-0.458L0.123,-0.52L0.06,-0.52L0.06,-0L0.123,-0L0.123,-0.386C0.123,-0.469 0.159,-0.505 0.19,-0.505C0.206,-0.505 0.219,-0.499 0.228,-0.486C0.237,-0.474 0.242,-0.449 0.242,-0.412L0.242,-0Z" style="fill:white;fill-rule:nonzero;"/>
                </g>
                <g transform="matrix(151.268,0,0,151.268,663.955,225.882)">
                    <path d="M0.05,-0.146C0.05,-0.036 0.091,0.005 0.154,0.005C0.19,0.005 0.211,-0.01 0.223,-0.028C0.23,-0.038 0.235,-0.049 0.237,-0.062L0.237,-0L0.3,-0L0.3,-0.7L0.237,-0.7L0.237,-0.458C0.235,-0.47 0.23,-0.481 0.223,-0.491C0.211,-0.508 0.189,-0.525 0.154,-0.525C0.123,-0.525 0.098,-0.514 0.079,-0.491C0.06,-0.468 0.05,-0.429 0.05,-0.374L0.05,-0.146ZM0.112,-0.412C0.112,-0.48 0.138,-0.505 0.17,-0.505C0.201,-0.505 0.237,-0.469 0.237,-0.386L0.237,-0.134C0.237,-0.051 0.201,-0.015 0.17,-0.015C0.138,-0.015 0.112,-0.04 0.112,-0.108L0.112,-0.412Z" style="fill:white;fill-rule:nonzero;"/>
                </g>
                <g transform="matrix(151.268,0,0,151.268,718.391,225.882)">
                    <path d="M0.108,-0.447C0.108,-0.49 0.128,-0.51 0.155,-0.51C0.182,-0.51 0.202,-0.49 0.202,-0.447L0.202,-0.369L0.259,-0.369L0.259,-0.426C0.259,-0.49 0.223,-0.525 0.154,-0.525C0.094,-0.525 0.046,-0.478 0.046,-0.426L0.046,-0.38C0.046,-0.354 0.053,-0.333 0.066,-0.317C0.079,-0.301 0.098,-0.284 0.121,-0.265L0.14,-0.251C0.157,-0.238 0.172,-0.222 0.186,-0.203C0.2,-0.185 0.207,-0.164 0.207,-0.14L0.207,-0.104C0.207,-0.068 0.202,-0.043 0.193,-0.03C0.184,-0.017 0.171,-0.01 0.155,-0.01C0.12,-0.01 0.098,-0.033 0.098,-0.104L0.098,-0.187L0.04,-0.187L0.04,-0.114C0.04,-0.036 0.087,0.005 0.155,0.005C0.229,0.005 0.27,-0.041 0.27,-0.12L0.27,-0.166C0.27,-0.233 0.216,-0.276 0.181,-0.302L0.166,-0.314C0.153,-0.325 0.14,-0.336 0.127,-0.349C0.114,-0.362 0.108,-0.377 0.108,-0.395L0.108,-0.447Z" style="fill:white;fill-rule:nonzero;"/>
                </g>
            </g>
        </g>
    </g>
</svg>
